# xmcd
#
# Track frame offsets:
#	150
#	20996
#	35017
#	46268
#	61189
#	81019
#	95230
#	115479
#	135753
#	151781
#	170111
#	184717
#	199813
#	218718
#	239510
#	278060
#
# Disc length: 4095 seconds
# Revision: 0
# Processed by: cddbd v1.5.2PL0 Copyright (c) Steve Scherf et al.
# Submitted via: dBpowerAMP V12.0
#
DISCID=e20ffd10
DTITLE=Eric Bibb - Eric Bibb In 50 Songs - Disc 2
DYEAR=2014
DGENRE=Blues
TTITLE0=Dance Me To The End Of Love
TTITLE1=Victory Voices
TTITLE2=She Got Mine
TTITLE3=Tell Riley
TTITLE4=Stickin' To You
TTITLE5=A Ship Called Love
TTITLE6=Have A Heart
TTITLE7=Forgiveness Is Gold
TTITLE8=Let The Mothers Step Up
TTITLE9=Dig A Little Deeper In The Well
TTITLE10=On My Way To Bamako
TTITLE11=The Cape
TTITLE12=Bayou Belle
TTITLE13=With My Maker I am One
TTITLE14=Hold On
TTITLE15=Connected
EXTD=
EXTT0=
EXTT1=
EXTT2=
EXTT3=
EXTT4=
EXTT5=
EXTT6=
EXTT7=
EXTT8=
EXTT9=
EXTT10=
EXTT11=
EXTT12=
EXTT13=
EXTT14=
EXTT15=
PLAYORDER=
